<svg xmlns="http://www.w3.org/2000/svg" width="620" height="160" viewBox="0 0 620 160" role="img" aria-labelledby="title desc">
  <title id="title">Explore the uFlex landing page</title>
  <desc id="desc">Product overview, benefits, technology, and plans</desc>
  <defs>
    <linearGradient id="background" x1="0" y1="0" x2="1" y2="1">
      <stop offset="0" stop-color="#074D61"/>
      <stop offset="1" stop-color="#168CA0"/>
    </linearGradient>
  </defs>
  <rect x="2" y="2" width="616" height="156" rx="30" fill="url(#background)" stroke="#71E0D0" stroke-width="3"/>
  <circle cx="72" cy="80" r="40" fill="#FFFFFF" fill-opacity="0.14"/>
  <circle cx="72" cy="80" r="22" fill="none" stroke="#FFFFFF" stroke-width="4"/>
  <path d="M50 80h44M72 58c8 7 12 14 12 22s-4 15-12 22M72 58c-8 7-12 14-12 22s4 15 12 22" fill="none" stroke="#FFFFFF" stroke-width="3" stroke-linecap="round"/>
  <text x="126" y="70" fill="#FFFFFF" font-family="Arial, Helvetica, sans-serif" font-size="28" font-weight="700">Explore uFlex</text>
  <text x="126" y="103" fill="#D8FAF5" font-family="Arial, Helvetica, sans-serif" font-size="18">Product overview, benefits, technology, and plans</text>
  <circle cx="566" cy="80" r="28" fill="#FFFFFF" fill-opacity="0.14"/>
  <path d="M554 80h23m-9-9 9 9-9 9" fill="none" stroke="#FFFFFF" stroke-width="4" stroke-linecap="round" stroke-linejoin="round"/>
</svg>
